<?xml version="1.0" encoding="UTF-8" ?>
<!DOCTYPE svg PUBLIC "-//W3C//DTD SVG 1.1//EN" "http://www.w3.org/Graphics/SVG/1.1/DTD/svg11.dtd">
<svg width="500pt" height="500pt" viewBox="0 0 500 500" version="1.1" xmlns="http://www.w3.org/2000/svg">
<g id="#2030fbff">
<path fill="#0275D8" opacity="1.00" d=" M 0.00 0.00 L 500.00 0.00 L 500.00 500.00 L 0.00 500.00 L 0.00 0.00 M 241.24 25.32 C 198.80 26.96 156.93 40.91 122.04 65.15 C 94.69 84.06 71.62 109.13 55.08 137.98 C 32.58 177.03 22.13 222.99 25.90 267.92 C 29.93 320.44 53.26 371.23 90.55 408.45 C 128.07 446.52 179.67 470.33 232.99 474.15 C 262.97 476.65 293.42 472.54 321.93 463.02 C 356.35 451.37 387.92 431.33 412.89 404.92 C 458.38 357.64 481.29 289.60 473.33 224.45 C 467.22 168.50 438.90 115.41 395.97 79.04 C 353.58 42.54 297.10 22.97 241.24 25.32 Z" />
</g>
<g id="#ffffffff">
<path fill="#ffffff" opacity="1.00" d=" M 241.24 25.32 C 297.10 22.97 353.58 42.54 395.97 79.04 C 438.90 115.41 467.22 168.50 473.33 224.45 C 481.29 289.60 458.38 357.64 412.89 404.92 C 387.92 431.33 356.35 451.37 321.93 463.02 C 293.42 472.54 262.97 476.65 232.99 474.15 C 179.67 470.33 128.07 446.52 90.55 408.45 C 53.26 371.23 29.93 320.44 25.90 267.92 C 22.13 222.99 32.58 177.03 55.08 137.98 C 71.62 109.13 94.69 84.06 122.04 65.15 C 156.93 40.91 198.80 26.96 241.24 25.32 Z" />
</g>
</svg>
