<?xml version="1.0" encoding="UTF-8" ?>
<!DOCTYPE svg PUBLIC "-//W3C//DTD SVG 1.1//EN" "http://www.w3.org/Graphics/SVG/1.1/DTD/svg11.dtd">
<svg width="500pt" height="500pt" viewBox="0 0 500 500" version="1.1" xmlns="http://www.w3.org/2000/svg">
<g id="#2030fbff">
<path fill="#2030fb" opacity="1.00" d=" M 0.00 0.00 L 500.00 0.00 L 500.00 500.00 L 0.00 500.00 L 0.00 0.00 M 240.26 25.38 C 190.79 27.41 142.20 46.44 104.54 78.60 C 75.35 103.28 52.69 135.57 39.37 171.40 C 24.25 211.71 21.05 256.38 30.44 298.40 C 38.37 334.45 55.34 368.50 79.45 396.46 C 114.14 437.15 163.87 464.63 216.78 472.35 C 246.86 476.98 277.83 475.14 307.25 467.42 C 344.59 457.59 379.38 438.00 406.95 410.93 C 431.24 387.39 449.96 358.19 461.45 326.39 C 477.62 281.96 479.21 232.43 465.84 187.08 C 451.01 135.60 416.98 89.99 371.88 61.08 C 340.86 41.04 304.84 28.80 268.02 25.90 C 258.78 25.35 249.51 24.52 240.26 25.38 Z" />
</g>
<g id="#fb2020ff">
<path fill="#fb2020" opacity="1.00" d=" M 240.26 25.38 C 249.51 24.52 258.78 25.35 268.02 25.90 C 304.84 28.80 340.86 41.04 371.88 61.08 C 416.98 89.99 451.01 135.60 465.84 187.08 C 479.21 232.43 477.62 281.96 461.45 326.39 C 449.96 358.19 431.24 387.39 406.95 410.93 C 379.38 438.00 344.59 457.59 307.25 467.42 C 277.83 475.14 246.86 476.98 216.78 472.35 C 163.87 464.63 114.14 437.15 79.45 396.46 C 55.34 368.50 38.37 334.45 30.44 298.40 C 21.05 256.38 24.25 211.71 39.37 171.40 C 52.69 135.57 75.35 103.28 104.54 78.60 C 142.20 46.44 190.79 27.41 240.26 25.38 Z" />
</g>
</svg>
