<?xml version="1.0" encoding="UTF-8" ?>
<!DOCTYPE svg PUBLIC "-//W3C//DTD SVG 1.1//EN" "http://www.w3.org/Graphics/SVG/1.1/DTD/svg11.dtd">
<svg width="500pt" height="500pt" viewBox="0 0 500 500" version="1.1" xmlns="http://www.w3.org/2000/svg">
<g id="#2030fbff">
<path fill="#2030fb" opacity="1.00" d=" M 0.00 0.00 L 500.00 0.00 L 500.00 500.00 L 0.00 500.00 L 0.00 0.00 M 234.58 25.77 C 182.60 29.04 132.09 51.45 94.59 87.58 C 69.58 111.37 50.30 141.10 38.57 173.55 C 30.44 195.79 26.14 219.32 25.22 242.95 C 23.71 291.10 38.13 339.62 65.89 379.02 C 95.06 420.88 138.94 452.18 188.03 466.11 C 216.14 474.13 245.84 476.85 274.90 473.42 C 311.74 469.42 347.48 455.97 377.93 434.87 C 409.57 413.01 435.46 382.89 452.20 348.26 C 473.75 304.22 480.26 253.02 470.28 205.02 C 459.34 150.45 427.17 100.56 382.03 68.03 C 351.55 45.88 315.42 31.56 278.01 26.93 C 263.62 25.27 249.04 24.34 234.58 25.77 Z" />
</g>
<g id="#ecfb6dff">
<path fill="#ecfb6d" opacity="1.00" d=" M 234.58 25.77 C 249.04 24.34 263.62 25.27 278.01 26.93 C 315.42 31.56 351.55 45.88 382.03 68.03 C 427.17 100.56 459.34 150.45 470.28 205.02 C 480.26 253.02 473.75 304.22 452.20 348.26 C 435.46 382.89 409.57 413.01 377.93 434.87 C 347.48 455.97 311.74 469.42 274.90 473.42 C 245.84 476.85 216.14 474.13 188.03 466.11 C 138.94 452.18 95.06 420.88 65.89 379.02 C 38.13 339.62 23.71 291.10 25.22 242.95 C 26.14 219.32 30.44 195.79 38.57 173.55 C 50.30 141.10 69.58 111.37 94.59 87.58 C 132.09 51.45 182.60 29.04 234.58 25.77 Z" />
</g>
</svg>
